<?xml version="1.0" encoding="UTF-8"?>
<svg id="Layer_2" xmlns="http://www.w3.org/2000/svg" version="1.1" viewBox="0 0 17.5 15.2">
  <!-- Generator: Adobe Illustrator 29.1.0, SVG Export Plug-In . SVG Version: 2.1.0 Build 142)  -->
  <defs>
    <style>
      .st0 {
        fill: #d50037;
      }

      .st1 {
        fill: #fff;
      }
    </style>
  </defs>
  <g id="Layer_1-2">
    <g>
      <path class="st1" d="M17.5,7.5v.4c0,2-1.6,3.6-3.6,3.6H0V3.7C0,1.6,1.6,0,3.6,0h5c-.7.9-1.1,2.1-1.1,3.4s.6,3.1,1.7,4.1c1.1,1.1,2.5,1.7,4.1,1.7s3.1-.6,4.1-1.7c0,0,0,0,0,0Z"/>
      <path class="st1" d="M0,10.9v3.8c0,.5.6.8.9.5l4.9-3.9-5.8-.3Z"/>
      <g>
        <polygon class="st0" points="16.8 2.5 16.8 4.3 14.3 4.3 14.3 6.8 12.4 6.8 12.4 4.3 10 4.3 10 2.5 12.4 2.5 12.4 0 14.3 0 14.3 2.5 16.8 2.5"/>
        <path class="st0" d="M14.3,2.5V0h-1.9v2.5h-2.5v1.9h2.5v2.4h1.9v-2.4h2.4v-1.9h-2.4Z"/>
      </g>
    </g>
  </g>
</svg>